<?xml version="1.0" standalone="no"?><svg xmlns="http://www.w3.org/2000/svg" viewBox="0 0 1440 320"><path fill="#0099ff" fill-opacity="1" d="M0,288L17.1,256C34.3,224,69,160,103,149.3C137.1,139,171,181,206,176C240,171,274,117,309,96C342.9,75,377,85,411,101.3C445.7,117,480,139,514,138.7C548.6,139,583,117,617,96C651.4,75,686,53,720,69.3C754.3,85,789,139,823,138.7C857.1,139,891,85,926,53.3C960,21,994,11,1029,10.7C1062.9,11,1097,21,1131,37.3C1165.7,53,1200,75,1234,122.7C1268.6,171,1303,245,1337,245.3C1371.4,245,1406,171,1423,133.3L1440,96L1440,320L1422.9,320C1405.7,320,1371,320,1337,320C1302.9,320,1269,320,1234,320C1200,320,1166,320,1131,320C1097.1,320,1063,320,1029,320C994.3,320,960,320,926,320C891.4,320,857,320,823,320C788.6,320,754,320,720,320C685.7,320,651,320,617,320C582.9,320,549,320,514,320C480,320,446,320,411,320C377.1,320,343,320,309,320C274.3,320,240,320,206,320C171.4,320,137,320,103,320C68.6,320,34,320,17,320L0,320Z"></path></svg>